<svg xmlns="http://www.w3.org/2000/svg" version="1.1" xmlns:xlink="http://www.w3.org/1999/xlink" xmlns:svgjs="http://svgjs.dev/svgjs" width="2560" height="560" preserveAspectRatio="none" viewBox="0 0 2560 560"><g mask="url(&quot;#SvgjsMask1009&quot;)" fill="none"><rect width="2560" height="560" x="0" y="0" fill="#1e3266"></rect><path d="M2602.6666666666665 560L0 560 L0 345.69Q78.55 210.9, 213.33333333333331 289.45Q296.88 245, 341.3333333333333 328.54Q439.2 213.08, 554.6666666666666 310.95Q690.39 233.34, 768 369.06Q865.49 253.22, 981.3333333333333 350.71Q1056.8 212.84, 1194.6666666666665 288.3Q1265.95 231.58, 1322.6666666666665 302.86Q1392.57 244.76, 1450.6666666666665 314.66Q1542.86 278.85, 1578.6666666666665 371.04Q1634.49 298.87, 1706.6666666666665 354.69Q1782.29 216.98, 1919.9999999999998 292.61Q2034.62 193.89, 2133.333333333333 308.51Q2258.63 220.47, 2346.6666666666665 345.76Q2379.28 250.38, 2474.6666666666665 282.99Q2558.9 239.22, 2602.6666666666665 323.45z" fill="#182f5d"></path><path d="M2645.3333333333335 560L0 560 L0 394.67Q133.32 314.65, 213.33333333333331 447.97Q259.55 366.19, 341.3333333333333 412.4Q459.5 317.24, 554.6666666666666 435.41Q627.73 295.14, 768 368.2Q847.74 319.94, 896 399.67Q965.57 341.24, 1024 410.81Q1107.3 280.77, 1237.3333333333333 364.07Q1307.15 305.88, 1365.3333333333333 375.7Q1496.16 293.2, 1578.6666666666665 424.03Q1651.15 283.18, 1791.9999999999998 355.67Q1924.37 274.71, 2005.333333333333 407.08Q2118.46 306.87, 2218.6666666666665 420Q2294.89 282.89, 2432 359.11Q2579.55 293.32, 2645.3333333333335 440.87z" fill="#25467d"></path><path d="M2773.333333333333 560L0 560 L0 488.5Q119.59 394.75, 213.33333333333331 514.34Q292.7 380.38, 426.66666666666663 459.75Q515.75 335.5, 640 424.59Q751.97 323.23, 853.3333333333333 435.2Q998.64 367.18, 1066.6666666666665 512.49Q1107.96 425.78, 1194.6666666666665 467.07Q1252.59 396.99, 1322.6666666666665 454.91Q1446.66 365.57, 1535.9999999999998 489.56Q1634.79 375.01, 1749.333333333333 473.8Q1872.26 383.4, 1962.6666666666663 506.33Q1995.42 411.09, 2090.666666666666 443.84Q2177.44 402.61, 2218.666666666666 489.38Q2288.17 430.88, 2346.666666666666 500.38Q2434.64 375.02, 2559.9999999999995 463Q2650.97 340.64, 2773.333333333333 431.61z" fill="#356cb1"></path><path d="M2645.3333333333335 560L0 560 L0 494.9Q151.03 432.6, 213.33333333333331 583.63Q282.88 439.85, 426.66666666666663 509.4Q498.47 453.2, 554.6666666666666 525.01Q668.58 425.59, 768 539.51Q897.88 456.06, 981.3333333333333 585.94Q1029.75 506.36, 1109.3333333333333 554.77Q1185.33 417.43, 1322.6666666666665 493.43Q1407.64 450.4, 1450.6666666666665 535.38Q1500.4 457.11, 1578.6666666666665 506.84Q1677.81 392.65, 1791.9999999999998 491.8Q1923.9 410.37, 2005.333333333333 542.27Q2099.53 423.13, 2218.6666666666665 517.33Q2344.18 429.51, 2432 555.02Q2510.78 420.47, 2645.3333333333335 499.25z" fill="white"></path></g><defs><mask id="SvgjsMask1009"><rect width="2560" height="560" fill="#ffffff"></rect></mask></defs></svg>